<svg width="24" height="24" viewBox="0 0 24 24" fill="none" xmlns="http://www.w3.org/2000/svg">
    <path fill-rule="evenodd" clip-rule="evenodd"
        d="M19.1959 6.98712C17.5699 4.89137 14.3061 5.24285 13.1635 7.63672C12.6965 8.6153 11.3035 8.6153 10.8365 7.63672C9.69394 5.24285 6.43011 4.89138 4.8041 6.98712L4.49475 7.38584C3.08665 9.20073 3.28996 11.7888 4.96418 13.3616L11.9168 19.8928C11.9479 19.922 11.9753 19.9477 12 19.9708C12.0247 19.9477 12.0521 19.922 12.0832 19.8928L19.0358 13.3616C20.71 11.7888 20.9133 9.20073 19.5052 7.38584L19.1959 6.98712ZM12 6.62869C13.7697 3.55733 18.1553 3.19888 20.381 6.06762L20.6904 6.46634C22.5728 8.89252 22.301 12.3524 20.0628 14.4548L13.0927 21.0026C12.9885 21.1005 12.8747 21.2075 12.7673 21.2902C12.6438 21.3853 12.4712 21.4954 12.2407 21.5406C12.0818 21.5718 11.9182 21.5718 11.7593 21.5406C11.5288 21.4954 11.3562 21.3853 11.2327 21.2902C11.1253 21.2075 11.0115 21.1005 10.9073 21.0026L3.93717 14.4548C1.69903 12.3524 1.42724 8.89253 3.30962 6.46635L3.61898 6.06762C5.84473 3.19888 10.2303 3.55732 12 6.62869Z"
        fill="white" />
</svg>
