<svg width="176" height="64" viewBox="0 0 176 64" fill="none" xmlns="http://www.w3.org/2000/svg">
<path d="M154.81 0.690002H165.34V50.62H174.27V63.21H154.81V0.690002Z" fill="white"/>
<path d="M169.62 6.08V1.87H171.48C171.85 1.87 172.14 1.91 172.34 1.98C172.53 2.06 172.69 2.19 172.81 2.38C172.93 2.57 172.99 2.78 172.99 3.01C172.99 3.31 172.89 3.56 172.7 3.76C172.51 3.97 172.21 4.09 171.81 4.15C171.96 4.22 172.07 4.29 172.15 4.36C172.31 4.51 172.47 4.7 172.61 4.92L173.34 6.06H172.64L172.09 5.19C171.93 4.94 171.79 4.74 171.69 4.61C171.59 4.48 171.49 4.38 171.41 4.33C171.33 4.28 171.24 4.24 171.16 4.22C171.1 4.21 170.99 4.2 170.85 4.2H170.21V6.07H169.65L169.62 6.08ZM170.18 3.73H171.38C171.63 3.73 171.83 3.7 171.98 3.65C172.12 3.6 172.23 3.51 172.31 3.4C172.38 3.28 172.42 3.16 172.42 3.02C172.42 2.82 172.35 2.66 172.2 2.53C172.06 2.4 171.83 2.34 171.52 2.34H170.19V3.73H170.18Z" fill="white"/>
<path d="M0 62.98V0.690002H14.2L19.24 26.8L24.96 0.690002H38.7V56.8L47.63 0.690002H61.6L70.3 56.8V0.920002H88.85C88.85 0.920002 95.26 2.06 98.47 11L97.1 0.690002H108.32L113.59 32.98L119.09 0.920002H150.69V12.6H141.3V25.42H150.23V38.47H141.53V50.38H150.69V62.98H130.31V2.98L119.77 62.98H107.18L100.54 23.13C100.54 23.13 99.4 34.12 93.21 39.16L101.23 62.98H90.24L82.45 42.14V62.98H60.24L59.1 57.03H50.63L48.8 62.98H27.73V40.08L22.23 62.98H16.51L11.47 40.31V62.75L0.0200005 62.98H0ZM57.94 44.89L54.73 25.88L51.98 44.89H57.94ZM82.21 30.46C89.77 30 89.08 20.61 89.08 20.61C87.94 11.45 82.21 11.91 82.21 11.91V30.46Z" fill="white"/>
</svg>
