<svg width="100" height="46" viewBox="0 0 100 46" fill="none" xmlns="http://www.w3.org/2000/svg">
    <g clip-path="url(#clip0_103_1342)">
        <path d="M100 0H0V45.2585H100V0Z" fill="#ED1B24" />
        <path d="M86.3569 6.42285H91.9512V32.9489H96.6954V39.6375H86.3569V6.42285Z" fill="white" />
        <path
            d="M97.1841 8.18701C97.1841 9.36111 96.2331 10.3174 95.0537 10.3174C93.8743 10.3174 92.9233 9.36642 92.9233 8.18701C92.9233 7.00761 93.8743 6.05664 95.0537 6.05664C96.2331 6.05664 97.1841 7.00761 97.1841 8.18701V8.18701Z"
            stroke="white" stroke-width="1.67" />
        <path
            d="M94.2251 9.28643V7.0498H95.2133C95.4098 7.0498 95.5639 7.07106 95.6701 7.10824C95.7711 7.15074 95.8561 7.21981 95.9198 7.32075C95.9836 7.42169 96.0155 7.53326 96.0155 7.65545C96.0155 7.81483 95.9623 7.94764 95.8614 8.05389C95.7605 8.16546 95.6011 8.22921 95.3886 8.26109C95.4683 8.29828 95.5267 8.33547 95.5692 8.37265C95.6542 8.45234 95.7392 8.55328 95.8136 8.67016L96.2014 9.2758H95.8295L95.5373 8.8136C95.4523 8.68079 95.3779 8.57453 95.3248 8.50547C95.2717 8.43641 95.2186 8.38328 95.1761 8.35672C95.1336 8.33015 95.0857 8.3089 95.0432 8.29828C95.0114 8.29296 94.9529 8.28765 94.8786 8.28765H94.5385V9.28112H94.241L94.2251 9.28643ZM94.5226 8.03796H95.1601C95.2929 8.03796 95.3992 8.02202 95.4789 7.99546C95.5533 7.96889 95.6117 7.92108 95.6542 7.86264C95.6914 7.79889 95.7126 7.73514 95.7126 7.66076C95.7126 7.55451 95.6755 7.4695 95.5958 7.40044C95.5214 7.33138 95.3992 7.2995 95.2345 7.2995H94.5279V8.03796H94.5226Z"
            fill="white" />
        <path
            d="M4.11182 39.5153V6.42285H11.6558L14.3334 20.2942L17.3722 6.42285H24.6718V36.2321L29.416 6.42285H36.8377L41.4597 36.2321V6.54504H51.3147C51.3147 6.54504 54.7201 7.15068 56.4255 11.9002L55.6976 6.42285H61.6584L64.4582 23.5774L67.3802 6.54504H84.1681V12.7502H79.1795V19.561H83.9237V26.494H79.3017V32.8214H84.1681V39.5153H73.3409V7.63945L67.7414 39.5153H61.0528L57.5252 18.3444C57.5252 18.3444 56.9195 24.183 53.631 26.8606L57.8918 39.5153H52.0532L47.9146 28.4438V39.5153H36.1152L35.5096 36.3543H31.0098L30.0375 39.5153H18.8438V27.3494L15.9218 39.5153H12.883L10.2054 27.4716V39.3932L4.12244 39.5153H4.11182ZM34.8933 29.9048L33.1879 19.8054L31.727 29.9048H34.888H34.8933ZM47.7871 22.2386C51.8035 21.9942 51.4369 17.0056 51.4369 17.0056C50.8313 12.1393 47.7871 12.3836 47.7871 12.3836V22.2386Z"
            fill="white" />
    </g>
    <defs>
        <clipPath id="clip0_103_1342">
            <rect width="100" height="45.2585" fill="white" />
        </clipPath>
    </defs>
</svg>
