<svg width="80" height="88" viewBox="0 0 80 88" fill="none" xmlns="http://www.w3.org/2000/svg">
<path d="M39.9994 7.29297C21.6327 7.29297 6.66602 23.6676 6.66602 43.762C6.66602 63.8565 21.6327 80.2311 39.9994 80.2311C58.366 80.2311 73.3327 63.8565 73.3327 43.762C73.3327 23.6676 58.366 7.29297 39.9994 7.29297ZM49.2994 45.6949L37.5327 58.5685C37.0327 59.1155 36.3993 59.3708 35.766 59.3708C35.1327 59.3708 34.4993 59.1155 33.9993 58.5685C33.0327 57.5109 33.0327 55.7604 33.9993 54.7028L43.9994 43.762L33.9993 32.8213C33.0327 31.7637 33.0327 30.0132 33.9993 28.9556C34.966 27.898 36.566 27.898 37.5327 28.9556L49.2994 41.8292C50.2994 42.8868 50.2994 44.6373 49.2994 45.6949Z" fill="white"/>
</svg>
